<?xml version="1.0" standalone="no"?>
<!DOCTYPE svg PUBLIC "-//W3C//DTD SVG 20010904//EN"
 "http://www.w3.org/TR/2001/REC-SVG-20010904/DTD/svg10.dtd">
<svg version="1.0" xmlns="http://www.w3.org/2000/svg"
 width="1280.000000pt" height="746.000000pt" viewBox="0 0 1280.000000 746.000000"
 preserveAspectRatio="xMidYMid meet">
<metadata>
Created by potrace 1.15, written by Peter Selinger 2001-2017
</metadata>
<g transform="translate(0.000000,746.000000) scale(0.100000,-0.100000)"
fill="#000000" stroke="none">
<path d="M4325 7453 c-951 -31 -1816 -154 -2545 -360 -149 -43 -187 -58 -273
-112 -188 -120 -338 -348 -556 -851 -156 -358 -192 -419 -346 -580 -90 -94
-110 -129 -125 -208 -8 -49 -21 -77 -55 -123 -84 -114 -129 -243 -170 -484
-14 -82 -43 -217 -65 -300 -21 -82 -53 -222 -70 -310 -17 -88 -49 -236 -73
-330 -38 -156 -41 -181 -41 -300 0 -122 2 -135 32 -214 25 -68 81 -181 98
-200 2 -2 12 7 22 19 19 23 19 21 25 -166 12 -358 77 -627 182 -742 84 -93
188 -110 542 -87 149 9 245 20 267 29 46 19 91 84 117 165 24 78 38 274 21
285 -7 4 -14 -3 -17 -16 -48 -215 -86 -315 -133 -346 -22 -14 -50 -17 -169
-17 -79 0 -143 1 -143 3 0 2 9 15 20 30 25 36 66 159 89 274 34 167 45 290 45
503 0 116 2 201 5 190 2 -11 16 -94 31 -185 29 -169 38 -165 20 8 -47 443
-138 773 -247 893 -48 53 -196 151 -270 179 -130 49 -284 -11 -354 -139 -11
-20 -17 -27 -15 -16 3 11 19 85 36 165 34 164 45 210 88 365 16 61 40 166 51
235 41 234 81 346 163 455 44 58 61 98 73 178 5 29 24 57 93 130 169 180 220
263 372 607 221 501 345 690 526 806 65 42 98 54 264 100 547 152 1210 258
1930 309 1431 101 3057 -43 3985 -355 410 -137 1126 -495 1650 -823 927 -581
1766 -1317 2514 -2203 l143 -170 2 -80 2 -79 -100 8 c-105 9 -894 2 -1143 -9
l-143 -7 0 32 c0 45 -42 159 -95 259 -186 349 -549 643 -1085 880 -150 66
-216 89 -228 78 -12 -14 93 -100 229 -187 485 -313 615 -408 772 -564 107
-105 184 -198 287 -345 40 -58 82 -115 92 -126 l20 -22 -114 -6 c-62 -3 -255
-13 -428 -22 -557 -27 -1102 -70 -1259 -100 -41 -7 -75 -13 -76 -11 -118 156
-339 324 -601 455 -141 70 -356 154 -521 201 -361 105 -1069 238 -1373 257
-86 6 -100 5 -100 -8 0 -28 163 -263 480 -693 199 -270 421 -425 655 -459 49
-7 1594 -57 1602 -52 7 5 -78 212 -96 237 -13 17 -21 32 -19 33 1 2 50 -1 108
-6 197 -17 1147 2 1835 37 458 24 1089 70 1107 81 32 20 -28 -73 -86 -134 -81
-85 -270 -176 -435 -207 l-93 -18 -106 110 c-116 120 -173 167 -196 161 -32
-7 40 -124 188 -305 l59 -73 67 0 c126 0 311 47 422 107 124 67 220 199 222
305 l1 56 79 12 c43 6 82 8 86 3 4 -4 19 -42 33 -83 14 -41 37 -101 51 -132
l25 -57 58 20 c31 10 72 28 90 39 l33 20 91 -121 c49 -67 98 -138 109 -159
l19 -38 -122 -31 c-67 -17 -239 -62 -382 -100 l-260 -69 3 -363 c2 -200 4
-364 5 -365 1 -1 172 37 380 83 208 47 380 83 384 80 17 -17 -109 -341 -213
-549 -79 -157 -125 -228 -186 -284 -79 -73 -123 -92 -314 -135 -537 -122
-1148 -206 -1829 -254 -541 -37 -691 -40 -2032 -39 -1189 2 -1326 3 -1370 18
-61 20 -116 65 -147 119 -33 58 -89 291 -131 552 -106 658 -123 746 -176 908
-66 199 -163 363 -273 464 -101 91 -282 192 -434 242 -130 44 -228 56 -325 40
-290 -45 -470 -306 -542 -789 -20 -132 -31 -485 -18 -575 8 -51 10 -33 16 130
23 638 173 1028 442 1145 68 30 204 37 304 16 144 -30 384 -155 493 -255 62
-57 131 -147 166 -216 18 -36 12 -32 -66 45 -100 98 -188 150 -308 180 -404
104 -712 -184 -849 -794 -115 -516 -89 -1199 65 -1666 86 -262 206 -434 348
-497 143 -63 417 -84 827 -64 132 7 335 16 452 20 l211 7 65 33 c41 20 82 50
108 79 110 125 180 358 178 591 -1 117 -2 115 -39 -74 -54 -276 -138 -442
-258 -513 -53 -30 -37 -29 -538 -34 -238 -3 -248 -2 -214 13 145 65 281 485
331 1023 l13 138 22 -81 c38 -138 100 -217 213 -269 54 -25 66 -26 301 -33
641 -19 1957 -30 2370 -19 1082 27 1837 105 2605 270 220 48 230 51 303 90
133 71 216 173 340 417 258 508 345 948 256 1288 -28 110 -88 216 -225 400
-834 1123 -1782 2040 -2824 2731 -559 371 -1264 743 -1783 940 -713 271 -1969
440 -3210 432 -174 -1 -353 -3 -397 -5z m2180 -3179 c691 -162 1059 -259 1267
-335 159 -57 454 -204 578 -287 150 -100 234 -174 323 -285 48 -59 103 -115
139 -140 35 -25 54 -43 45 -45 -8 -2 -226 17 -484 42 -257 25 -596 57 -753 71
-328 29 -356 34 -467 85 -168 78 -231 137 -517 480 -204 246 -370 437 -406
468 -13 12 -12 13 10 8 14 -3 133 -31 265 -62z m-5929 -254 c124 -62 212 -134
250 -205 33 -61 77 -165 70 -165 -2 0 -17 24 -34 53 -85 150 -263 222 -394
158 -89 -42 -160 -143 -213 -298 l-23 -68 -7 100 c-10 126 -1 280 17 325 17
40 85 105 132 126 58 25 116 18 202 -26z m-423 -483 c-2 -433 -7 -471 -36
-330 -28 130 -39 281 -27 364 8 53 60 289 65 289 0 0 -1 -145 -2 -323z m493
194 c107 -49 188 -221 229 -486 23 -154 30 -438 16 -623 -17 -209 -39 -313
-89 -416 -3 -5 5 -7 17 -3 11 3 21 1 21 -4 0 -14 -47 -21 -68 -10 -11 6 -67
15 -125 20 -59 6 -122 17 -140 25 -102 42 -170 283 -183 651 -14 363 50 691
155 808 55 61 96 70 167 38z m11631 -259 c31 -40 54 -73 52 -75 -5 -3 -69 -27
-89 -33 -12 -4 -20 17 -37 98 -12 57 -24 112 -28 123 -8 24 20 -7 102 -113z
m-6637 -579 c308 -85 506 -442 587 -1058 25 -196 25 -695 -1 -910 -55 -465
-163 -775 -270 -775 -13 0 -35 9 -50 21 -14 11 -26 16 -26 11 0 -10 37 -45 65
-60 26 -15 -81 -15 -303 -2 -364 22 -457 70 -569 295 -141 281 -222 821 -194
1289 43 709 244 1148 553 1205 54 10 137 4 208 -16z"/>
<path d="M755 2210 c3 -5 11 -10 16 -10 6 0 7 5 4 10 -3 6 -11 10 -16 10 -6 0
-7 -4 -4 -10z"/>
<path d="M4300 6969 c0 -2 332 -465 738 -1029 l738 -1025 864 3 c2134 7 4082
41 4139 72 52 28 -817 40 -2988 40 -1341 0 -1958 3 -1965 10 -22 21 -1473
1895 -1470 1898 2 3 142 -1 899 -28 1112 -41 2512 -63 2565 -42 22 9 19 10
-30 16 -237 27 -1333 58 -2455 71 -269 3 -613 8 -762 11 -150 3 -273 4 -273 3z"/>
<path d="M2240 6945 c-252 -36 -489 -131 -616 -248 -85 -79 -109 -124 -173
-328 -27 -85 -68 -212 -91 -284 -46 -144 -47 -173 -9 -251 64 -134 316 -327
530 -408 36 -14 259 -72 495 -130 1493 -366 2549 -617 2600 -618 83 -2 158 72
194 191 23 80 26 158 6 206 -32 76 -886 1276 -927 1300 -5 4 -9 2 -9 -3 0 -22
313 -523 670 -1072 l172 -265 -5 -60 c-5 -67 -45 -158 -76 -175 -15 -8 -275
54 -1193 284 -645 162 -1329 332 -1519 379 -372 92 -443 118 -584 213 -140 94
-245 204 -245 257 0 11 24 99 54 196 30 97 66 217 81 266 37 122 54 153 123
216 190 177 602 270 1057 239 337 -23 634 -80 1098 -212 98 -27 181 -47 184
-44 3 3 -25 19 -62 36 -316 142 -708 253 -1083 306 -156 22 -540 27 -672 9z"/>
<path d="M924 5083 c281 -152 3536 -893 3536 -805 0 84 -3164 824 -3515 822
l-50 -1 29 -16z"/>
<path d="M1430 3723 c0 -45 796 -289 1585 -487 570 -142 1045 -237 1045 -207
0 37 -424 177 -1070 354 -776 213 -1560 383 -1560 340z"/>
<path d="M10356 3378 c-20 -30 -59 -137 -81 -222 l-19 -69 -145 6 c-166 7
-268 23 -462 73 -168 43 -263 79 -401 152 -58 31 -110 54 -113 50 -13 -12 35
-76 102 -137 104 -96 285 -180 463 -216 163 -33 582 -27 616 8 17 17 66 230
72 310 5 72 -5 86 -32 45z"/>
<path d="M10736 3359 c-13 -65 -7 -82 41 -131 l47 -48 -56 0 c-61 0 -60 1 -73
-72 l-6 -38 60 0 60 0 7 50 c4 28 9 50 12 50 3 0 26 -23 51 -51 l46 -50 57 3
57 3 -50 53 c-49 50 -53 52 -105 52 l-54 0 6 58 6 57 -50 48 -49 48 -7 -32z"/>
<path d="M7425 2785 c-103 -27 -171 -148 -182 -321 -9 -148 30 -301 97 -378
61 -69 -14 -64 1116 -81 566 -8 1098 -16 1182 -17 l152 -3 0 371 0 371 -122 2
c-519 7 -2087 55 -2163 65 -16 3 -52 -1 -80 -9z"/>
<path d="M10820 2740 c-987 -60 -917 -54 -949 -77 -58 -43 -62 -64 -59 -340 3
-237 4 -253 24 -280 44 -59 -7 -59 967 -3 975 57 940 53 985 120 23 34 23 37
20 297 l-3 263 -32 32 c-29 28 -39 32 -95 34 -35 2 -421 -19 -858 -46z m919
-26 c20 -25 21 -39 21 -271 l0 -245 -29 -29 c-21 -20 -39 -29 -63 -29 -18 0
-422 -23 -897 -51 l-865 -51 -23 26 c-23 27 -23 31 -23 264 0 254 4 277 50
298 21 10 1552 108 1752 113 50 1 59 -2 77 -25z"/>
<path d="M7480 1940 c17 -21 59 -64 93 -93 366 -321 933 -524 1682 -604 240
-25 924 -25 1204 0 692 63 1346 205 1703 370 80 37 168 92 168 106 0 5 -44 -7
-97 -25 -575 -196 -1564 -334 -2403 -334 -991 0 -1725 180 -2267 556 -50 35
-97 64 -103 64 -6 0 2 -18 20 -40z"/>
<path d="M11449 992 c-30 -32 -86 -94 -125 -138 -116 -128 -278 -212 -458
-236 -124 -16 -928 5 -1021 27 -112 27 -239 94 -323 170 -40 37 -76 65 -79 61
-11 -11 28 -95 69 -146 84 -106 229 -184 407 -219 158 -32 829 -53 957 -30
255 45 456 188 576 409 58 107 78 160 61 160 -6 0 -34 -26 -64 -58z"/>
</g>
</svg>
